<?xml version="1.0" encoding="UTF-8"?>
<svg xmlns="http://www.w3.org/2000/svg" xmlns:xlink="http://www.w3.org/1999/xlink" width="375pt" height="374.999991pt" viewBox="0 0 375 374.999991" version="1.2">
<defs>
<clipPath id="clip1">
  <path d="M 239 112.5 L 251.8125 112.5 L 251.8125 118 L 239 118 Z M 239 112.5 "/>
</clipPath>
<clipPath id="clip2">
  <path d="M 123.5625 112.5 L 212 112.5 L 212 118 L 123.5625 118 Z M 123.5625 112.5 "/>
</clipPath>
<clipPath id="clip3">
  <path d="M 123.5625 129 L 181 129 L 181 262.5 L 123.5625 262.5 Z M 123.5625 129 "/>
</clipPath>
<clipPath id="clip4">
  <path d="M 194 129 L 251.8125 129 L 251.8125 236 L 194 236 Z M 194 129 "/>
</clipPath>
</defs>
<g id="surface1">
<g clip-path="url(#clip1)" clip-rule="nonzero">
<path style=" stroke:none;fill-rule:nonzero;fill:rgb(1.959229%,21.958923%,41.958618%);fill-opacity:1;" d="M 242.347656 117.335938 L 249.414062 117.335938 C 250.75 117.335938 251.835938 116.257812 251.835938 114.925781 C 251.835938 113.589844 250.75 112.511719 249.414062 112.511719 L 242.347656 112.511719 C 241.011719 112.511719 239.929688 113.589844 239.929688 114.925781 C 239.929688 116.257812 241.011719 117.335938 242.347656 117.335938 "/>
</g>
<g clip-path="url(#clip2)" clip-rule="nonzero">
<path style=" stroke:none;fill-rule:nonzero;fill:rgb(1.959229%,21.958923%,41.958618%);fill-opacity:1;" d="M 126 117.335938 L 208.898438 117.335938 C 210.234375 117.335938 211.316406 116.257812 211.316406 114.925781 C 211.316406 113.589844 210.234375 112.511719 208.898438 112.511719 L 126 112.511719 C 124.660156 112.511719 123.582031 113.589844 123.582031 114.925781 C 123.582031 116.257812 124.660156 117.335938 126 117.335938 "/>
</g>
<g clip-path="url(#clip3)" clip-rule="nonzero">
<path style=" stroke:none;fill-rule:nonzero;fill:rgb(1.959229%,21.958923%,41.958618%);fill-opacity:1;" d="M 123.582031 132.085938 C 123.582031 133.421875 124.660156 134.5 126 134.5 L 175.605469 134.5 L 175.605469 260.113281 C 175.605469 261.449219 176.691406 262.527344 178.027344 262.527344 C 179.363281 262.527344 180.445312 261.449219 180.445312 260.113281 L 180.445312 129.675781 L 126 129.675781 C 124.660156 129.675781 123.582031 130.753906 123.582031 132.085938 "/>
</g>
<g clip-path="url(#clip4)" clip-rule="nonzero">
<path style=" stroke:none;fill-rule:nonzero;fill:rgb(1.959229%,21.958923%,41.958618%);fill-opacity:1;" d="M 249.414062 129.675781 L 194.972656 129.675781 L 194.972656 233.207031 C 194.972656 234.542969 196.050781 235.621094 197.386719 235.621094 C 198.726562 235.621094 199.804688 234.542969 199.804688 233.207031 L 199.804688 134.5 L 249.414062 134.5 C 250.75 134.5 251.835938 133.421875 251.835938 132.085938 C 251.835938 130.753906 250.75 129.675781 249.414062 129.675781 "/>
</g>
</g>
</svg>
